<svg width="99" height="81" viewBox="0 0 99 81" fill="none" xmlns="http://www.w3.org/2000/svg">
<path d="M81 40.5C81 62.8675 62.8675 81 40.5 81C18.1325 81 0 62.8675 0 40.5C0 18.1325 18.1325 0 40.5 0C62.8675 0 81 18.1325 81 40.5ZM0.912685 40.5C0.912685 62.3635 18.6365 80.0873 40.5 80.0873C62.3635 80.0873 80.0873 62.3635 80.0873 40.5C80.0873 18.6365 62.3635 0.912685 40.5 0.912685C18.6365 0.912685 0.912685 18.6365 0.912685 40.5Z" fill="#0B0D11"/>
<circle cx="58.5" cy="40.5" r="40.5" fill="#0B0D11"/>
<path d="M71.2062 40.2643C71.9382 40.5316 71.9338 41.5685 71.1995 41.8295C67.6127 43.1045 64.2764 44.997 61.3415 47.4213L60.7184 47.9361C60.1441 48.4105 59.2925 47.8989 59.4392 47.1685C60.2488 43.1372 60.2498 38.9801 59.4402 34.9488C59.2935 34.2182 60.1467 33.7091 60.72 34.1852L61.0083 34.4247C64.0174 36.9238 67.4337 38.8869 71.108 40.2285L71.2062 40.2643Z" fill="white"/>
<path d="M47 40.0901C46.4477 40.0901 46 40.5378 46 41.0901C46 41.6423 46.4477 42.0901 47 42.0901H60.5C61.0523 42.0901 61.5 41.6423 61.5 41.0901C61.5 40.5378 61.0523 40.0901 60.5 40.0901H47Z" fill="white"/>
</svg>
