<?xml version="1.0" standalone="no"?>
<!DOCTYPE svg PUBLIC "-//W3C//DTD SVG 20010904//EN"
 "http://www.w3.org/TR/2001/REC-SVG-20010904/DTD/svg10.dtd">
<svg version="1.0" xmlns="http://www.w3.org/2000/svg"
 width="512.000000pt" height="512.000000pt" viewBox="0 0 512.000000 512.000000"
 preserveAspectRatio="xMidYMid meet">

<g transform="translate(0.000000,512.000000) scale(0.100000,-0.100000)"
fill="#000000" stroke="none">
<path d="M2295 5028 c-451 -45 -919 -238 -1280 -526 -593 -475 -935 -1184
-935 -1942 0 -842 422 -1619 1130 -2082 313 -205 731 -351 1109 -388 1151
-112 2236 595 2595 1690 170 519 170 1041 0 1560 -204 621 -650 1138 -1239
1436 -273 137 -571 224 -869 253 -128 13 -382 12 -511 -1z m1460 -1477 c22
-10 52 -31 67 -47 60 -65 58 -24 58 -951 0 -800 -1 -850 -19 -888 -24 -52 -76
-103 -121 -116 -23 -6 -428 -9 -1201 -7 l-1166 3 -41 29 c-26 18 -51 47 -67
79 l-25 51 0 848 c0 928 -2 887 58 952 15 16 45 37 67 47 38 18 92 19 1195 19
1103 0 1157 -1 1195 -19z"/>
<path d="M1507 3387 c57 -73 798 -856 828 -876 60 -40 132 -60 220 -61 185 0
191 5 638 485 206 220 388 417 406 438 l33 37 -1072 0 -1071 0 18 -23z"/>
<path d="M1400 2554 c0 -699 0 -716 18 -693 11 13 139 188 287 389 147 201
272 370 277 376 8 10 -182 222 -509 566 l-73 78 0 -716z"/>
<path d="M3427 2958 l-287 -308 287 -409 288 -410 3 359 c1 198 1 521 0 718
l-3 359 -288 -309z"/>
<path d="M2963 2465 c-75 -77 -165 -129 -268 -155 -99 -25 -171 -25 -269 0
-103 26 -183 70 -265 146 l-67 62 -302 -412 -302 -411 536 -3 c294 -1 774 -1
1065 0 l530 3 -291 415 c-160 228 -295 416 -298 416 -4 1 -35 -27 -69 -61z"/>
</g>
</svg>
