<svg width="81" height="81" viewBox="0 0 81 81" fill="none" xmlns="http://www.w3.org/2000/svg">
<path d="M40.1889 49.336C38.6023 49.336 37.1929 49.056 35.9609 48.496C34.7476 47.936 33.8049 47.208 33.1329 46.312L34.8969 44.156C35.4943 44.8467 36.2596 45.3973 37.1929 45.808C38.1263 46.2187 39.0876 46.424 40.0769 46.424C41.2903 46.424 42.2423 46.172 42.9329 45.668C43.6236 45.1453 43.9689 44.4453 43.9689 43.568C43.9689 41.8133 42.5876 40.936 39.8249 40.936C38.5743 40.936 37.8556 40.9453 37.6689 40.964V38.024C37.8929 38.0427 38.6116 38.052 39.8249 38.052C40.9823 38.052 41.9063 37.8467 42.5969 37.436C43.3063 37.0253 43.6609 36.4093 43.6609 35.588C43.6609 34.748 43.3063 34.104 42.5969 33.656C41.8876 33.1893 40.9823 32.956 39.8809 32.956C38.0516 32.956 36.4463 33.6467 35.0649 35.028L33.3849 32.984C35.0463 31.024 37.3143 30.044 40.1889 30.044C42.2236 30.044 43.8569 30.5013 45.0889 31.416C46.3209 32.312 46.9369 33.5347 46.9369 35.084C46.9369 36.2413 46.5263 37.2027 45.7049 37.968C44.9023 38.7147 43.9596 39.1813 42.8769 39.368C43.9409 39.4613 44.9303 39.9093 45.8449 40.712C46.7596 41.5147 47.2169 42.5787 47.2169 43.904C47.2169 45.5093 46.5729 46.816 45.2849 47.824C44.0156 48.832 42.3169 49.336 40.1889 49.336Z" fill="white"/>
<circle cx="40.5" cy="40.5" r="39.5" stroke="white" stroke-opacity="0.24" stroke-width="2"/>
<path d="M40.5 0C48.5101 9.552e-08 56.3404 2.37528 63.0006 6.82548C69.6608 11.2757 74.8518 17.6009 77.9171 25.0013C80.9825 32.4017 81.7845 40.5449 80.2218 48.4012C78.6591 56.2574 74.8018 63.4738 69.1378 69.1378C63.4738 74.8018 56.2574 78.6591 48.4012 80.2218C40.5449 81.7845 32.4017 80.9825 25.0013 77.9171C17.6009 74.8518 11.2757 69.6608 6.82548 63.0006C2.37528 56.3404 -1.9104e-07 48.5101 0 40.5H4.55083C4.55083 47.6101 6.65921 54.5605 10.6094 60.4723C14.5595 66.3841 20.174 70.9918 26.7428 73.7127C33.3117 76.4336 40.5399 77.1455 47.5133 75.7584C54.4868 74.3713 60.8923 70.9475 65.9199 65.9199C70.9475 60.8923 74.3713 54.4868 75.7584 47.5133C77.1455 40.5399 76.4336 33.3117 73.7127 26.7428C70.9918 20.174 66.3841 14.5595 60.4723 10.6094C54.5605 6.65921 47.6101 4.55083 40.5 4.55083V0Z" fill="white"/>
</svg>
