<svg width="81" height="81" viewBox="0 0 81 81" fill="none" xmlns="http://www.w3.org/2000/svg">
<path d="M45.3429 49H42.0669V44.772H33.1629V42.14L40.8349 30.324H45.3429V41.888H47.8349V44.772H45.3429V49ZM42.0669 41.888V33.264L36.3829 41.888H42.0669Z" fill="white"/>
<circle cx="40.5" cy="40.5" r="39.5" stroke="white" stroke-opacity="0.24" stroke-width="2"/>
<path d="M81 40.5C81 62.8675 62.8675 81 40.5 81C18.1325 81 0 62.8675 0 40.5C0 18.1325 18.1325 0 40.5 0C62.8675 0 81 18.1325 81 40.5ZM4.55083 40.5C4.55083 60.3542 20.6458 76.4492 40.5 76.4492C60.3542 76.4492 76.4492 60.3542 76.4492 40.5C76.4492 20.6458 60.3542 4.55083 40.5 4.55083C20.6458 4.55083 4.55083 20.6458 4.55083 40.5Z" fill="white"/>
</svg>
