<svg width="81" height="81" viewBox="0 0 81 81" fill="none" xmlns="http://www.w3.org/2000/svg">
<path d="M47.0978 49H33.5738V46.424C37.4752 43.4747 40.1258 41.2907 41.5258 39.872C42.9445 38.4347 43.6538 37.0813 43.6538 35.812C43.6538 34.8973 43.3178 34.1973 42.6458 33.712C41.9925 33.208 41.1992 32.956 40.2658 32.956C38.2125 32.956 36.5325 33.7027 35.2258 35.196L33.3218 33.04C34.1245 32.0693 35.1325 31.332 36.3458 30.828C37.5778 30.3053 38.8658 30.044 40.2098 30.044C42.1138 30.044 43.7192 30.5573 45.0258 31.584C46.3325 32.6107 46.9858 34.02 46.9858 35.812C46.9858 37.4173 46.3138 39.0133 44.9698 40.6C43.6258 42.1867 41.5725 44.0253 38.8098 46.116H47.0978V49Z" fill="white"/>
<circle cx="40.5" cy="40.5" r="39.5" stroke="white" stroke-opacity="0.24" stroke-width="2"/>
<path d="M40.5 0C45.8185 6.34229e-08 51.085 1.04756 55.9987 3.08288C60.9124 5.1182 65.3771 8.1014 69.1378 11.8622C72.8986 15.623 75.8818 20.0876 77.9171 25.0013C79.9524 29.915 81 35.1815 81 40.5C81 45.8185 79.9524 51.085 77.9171 55.9987C75.8818 60.9124 72.8986 65.3771 69.1378 69.1378C65.377 72.8986 60.9124 75.8818 55.9987 77.9171C51.085 79.9524 45.8185 81 40.5 81L40.5 76.4492C45.2209 76.4492 49.8956 75.5193 54.2571 73.7127C58.6187 71.9061 62.5817 69.2581 65.9199 65.9199C69.2581 62.5817 71.9061 58.6187 73.7127 54.2572C75.5193 49.8956 76.4492 45.2209 76.4492 40.5C76.4492 35.7791 75.5193 31.1044 73.7127 26.7429C71.9061 22.3813 69.2581 18.4183 65.9199 15.0801C62.5817 11.7419 58.6187 9.09391 54.2572 7.2873C49.8956 5.48068 45.2209 4.55083 40.5 4.55083V0Z" fill="white"/>
</svg>
