<svg width="81" height="81" viewBox="0 0 81 81" fill="none" xmlns="http://www.w3.org/2000/svg">
<path d="M43.8336 49H40.5576V34.58L37.5056 37.744L35.6016 35.756L40.9776 30.324H43.8336V49Z" fill="white"/>
<circle cx="40.5" cy="40.5" r="39.5" stroke="white" stroke-opacity="0.24" stroke-width="2"/>
<path d="M40.5 0C45.8185 6.34229e-08 51.085 1.04756 55.9987 3.08288C60.9124 5.1182 65.3771 8.1014 69.1378 11.8622C72.8986 15.623 75.8818 20.0876 77.9171 25.0013C79.9524 29.915 81 35.1815 81 40.5L76.4492 40.5C76.4492 35.7791 75.5193 31.1044 73.7127 26.7429C71.9061 22.3813 69.2581 18.4183 65.9199 15.0801C62.5817 11.7419 58.6187 9.09391 54.2572 7.2873C49.8956 5.48068 45.2209 4.55083 40.5 4.55083L40.5 0Z" fill="white"/>
</svg>
