<svg width="135" height="30" viewBox="0 0 135 30" fill="none" xmlns="http://www.w3.org/2000/svg">
<g clip-path="url(#clip0_860_229)">
<path d="M15.0386 0L0 14.9999L15.0386 30L30.1036 14.9999L15.0386 0ZM15.5663 7.31577L17.2021 8.97364L15.5663 10.6052L12.6114 13.5263L15.5663 16.4736L13.9306 18.1052L9.33984 13.5263L15.5663 7.31577ZM14.5373 22.6842L12.9016 21.0263L17.4658 16.4736L14.5373 13.5263L16.1731 11.8947L20.7638 16.4736L14.5373 22.6842Z" fill="url(#paint0_linear_860_229)"/>
<path d="M83.2439 20.3588C82.3354 20.3828 81.4383 20.1534 80.6533 19.6965C79.9263 19.2529 79.3415 18.6112 78.9679 17.8472C78.5733 16.9832 78.3691 16.0449 78.3691 15.0955C78.3691 14.1462 78.5733 13.2078 78.9679 12.3439C79.343 11.5789 79.9273 10.9353 80.6533 10.4874C81.4367 10.026 82.3345 9.79403 83.2439 9.818C84.2621 9.77279 85.2663 10.0675 86.0976 10.6556C86.8435 11.2314 87.3461 12.0649 87.5064 12.992H86.1487C86.0119 12.3916 85.6748 11.8552 85.1926 11.4707C84.6286 11.0615 83.9404 10.8586 83.2439 10.8962C82.5721 10.8808 81.9096 11.0545 81.3321 11.3973C80.7779 11.7432 80.3386 12.2448 80.0695 12.8391C79.4764 14.2803 79.4764 15.8965 80.0695 17.3377C80.3383 17.9319 80.7777 18.4332 81.3321 18.7783C81.9092 19.1221 82.5719 19.2963 83.2439 19.2807C83.9382 19.3181 84.6248 19.1206 85.1926 18.7203C85.6739 18.3476 86.0116 17.8208 86.1487 17.2287H87.5064C87.3417 18.144 86.8391 18.9645 86.0976 19.5283C85.2645 20.112 84.261 20.404 83.2439 20.3588Z" fill="white"/>
<path d="M88.6738 20.1843L92.4398 9.99414H93.7386L97.4897 20.1843H96.1908L95.2566 17.5636H90.9068L89.9585 20.1843H88.6738ZM91.2721 16.5744H94.892L93.0817 11.5367L91.2721 16.5744Z" fill="white"/>
<path d="M99.2988 20.1843V9.99415H102.656C103.334 9.96917 104.009 10.1035 104.626 10.3863C105.107 10.6169 105.506 10.9874 105.772 11.449C106.015 11.9141 106.143 12.4306 106.144 12.9552C106.145 13.4798 106.02 13.997 105.779 14.4631C105.518 14.9272 105.12 15.3005 104.64 15.5329C104.02 15.8226 103.34 15.9599 102.656 15.9333H100.525V20.1843H99.2988ZM100.525 14.9003H102.627C103.253 14.9617 103.879 14.7758 104.371 14.3826C104.549 14.1933 104.687 13.9698 104.776 13.7259C104.865 13.4819 104.903 13.2224 104.889 12.9632C104.904 12.7017 104.866 12.4399 104.777 12.1935C104.688 11.9472 104.55 11.7213 104.371 11.5297C103.879 11.1368 103.253 10.9514 102.627 11.0131H100.525V14.9003Z" fill="white"/>
<path d="M108.043 20.1843V9.99414H109.269V20.1843H108.043Z" fill="white"/>
<path d="M114.113 20.1843V10.9988H111.062V9.99414H118.389V10.9988H115.339V20.1843H114.113Z" fill="white"/>
<path d="M118.391 20.1843L122.157 9.99414H123.455L127.207 20.1843H125.908L124.973 17.5636H120.624L119.675 20.1843H118.391ZM120.989 16.5744H124.609L122.799 11.5367L120.989 16.5744Z" fill="white"/>
<path d="M129.016 20.1843V9.99414H130.241V19.2092H135V20.1843H129.016Z" fill="white"/>
<path d="M40.2227 20.1814V9.81797H43.7708C44.8108 9.77847 45.8441 9.99996 46.7761 10.4621C47.5369 10.8641 48.1503 11.4964 48.528 12.2681C48.9046 13.1298 49.099 14.0597 49.099 14.9997C49.099 15.9396 48.9046 16.8695 48.528 17.7312C48.1501 18.5028 47.5367 19.135 46.7761 19.5373C45.8441 19.9994 44.8108 20.2209 43.7708 20.1814H40.2227ZM42.1227 18.5528H43.6814C44.3938 18.5871 45.1034 18.442 45.7448 18.1309C46.2364 17.864 46.6194 17.4346 46.828 16.9165C47.2636 15.6779 47.2636 14.3283 46.828 13.0897C46.6198 12.5678 46.2371 12.1336 45.7448 11.8608C45.105 11.5445 44.3947 11.3967 43.6814 11.4314H42.1227V18.5528Z" fill="white"/>
<path d="M52.8252 20.1818V11.3435H49.7969V9.81836H57.7679V11.3435H54.7251V20.1818H52.8252Z" fill="white"/>
<path d="M58.6732 20.1818L61.9235 14.9411L58.6289 9.81836H60.8106L63.1411 13.4304L65.2786 9.81836H67.4159L64.1656 15.0294L67.4899 20.1818H65.3083L62.948 16.5247L60.8106 20.1818H58.6732Z" fill="white"/>
<path d="M73.0835 8.07324H72.4238V21.9353H73.0835V8.07324Z" fill="url(#paint1_linear_860_229)"/>
</g>
<defs>
<linearGradient id="paint0_linear_860_229" x1="7.52591" y1="7.49329" x2="22.5391" y2="22.5451" gradientUnits="userSpaceOnUse">
<stop stop-color="#FDDF96"/>
<stop offset="0.12636" stop-color="#FDDD8F"/>
<stop offset="0.30861" stop-color="#FCD77C"/>
<stop offset="0.52467" stop-color="#FBCD5D"/>
<stop offset="0.76453" stop-color="#FAC032"/>
<stop offset="1" stop-color="#F9B100"/>
</linearGradient>
<linearGradient id="paint1_linear_860_229" x1="69.1143" y1="11.3743" x2="76.3743" y2="18.6529" gradientUnits="userSpaceOnUse">
<stop stop-color="#FDDF96"/>
<stop offset="0.12636" stop-color="#FDDD8F"/>
<stop offset="0.30861" stop-color="#FCD77C"/>
<stop offset="0.52467" stop-color="#FBCD5D"/>
<stop offset="0.76453" stop-color="#FAC032"/>
<stop offset="1" stop-color="#F9B100"/>
</linearGradient>
<clipPath id="clip0_860_229">
<rect width="135" height="30" fill="white"/>
</clipPath>
</defs>
</svg>
