<svg width="20" height="19" viewBox="0 0 20 19" fill="none" xmlns="http://www.w3.org/2000/svg">
<path d="M18.1827 0.122675C18.8893 -0.205967 19.6194 0.530353 19.2847 1.23415C17.65 4.67201 16.6291 8.36925 16.2681 12.1588L16.1915 12.9634C16.1208 13.705 15.1569 13.9454 14.7442 13.3252C12.466 9.90217 9.52727 6.96198 6.10424 4.68384C5.4839 4.27098 5.72725 3.30767 6.46924 3.23897L6.84247 3.20441C10.7373 2.84377 14.5412 1.81626 18.0879 0.166752L18.1827 0.122675Z" fill="#15171B"/>
<path d="M0.94312 17.1158C0.552596 17.5063 0.552596 18.1395 0.94312 18.53C1.33364 18.9206 1.96681 18.9206 2.35733 18.53L11.9033 8.98409C12.2938 8.59357 12.2938 7.9604 11.9033 7.56988C11.5128 7.17935 10.8796 7.17935 10.4891 7.56988L0.94312 17.1158Z" fill="#15171B"/>
</svg>
